<?xml version="1.0" encoding="UTF-8" standalone="no"?>
<svg
   width="617741.75"
   height="617741"
   viewBox="0 0 617741.75 617741"
   version="1.1"
   xml:space="preserve"
   style="clip-rule:evenodd;fill-rule:evenodd;stroke-linejoin:round;stroke-miterlimit:2"
   id="svg1"
   sodipodi:docname="logo-white.svg"
   xmlns:inkscape="http://www.inkscape.org/namespaces/inkscape"
   xmlns:sodipodi="http://sodipodi.sourceforge.net/DTD/sodipodi-0.dtd"
   xmlns="http://www.w3.org/2000/svg"
   xmlns:svg="http://www.w3.org/2000/svg"
   xmlns:serif="http://www.serif.com/"><defs
   id="defs1" /><sodipodi:namedview
   id="namedview1"
   pagecolor="#505050"
   bordercolor="#eeeeee"
   borderopacity="1"
   inkscape:showpageshadow="0"
   inkscape:pageopacity="0"
   inkscape:pagecheckerboard="0"
   inkscape:deskcolor="#505050"><inkscape:page
     x="0"
     y="0"
     width="617741.75"
     height="617741"
     id="page2"
     margin="0"
     bleed="0" /></sodipodi:namedview>
    <g
   id="_0"
   serif:id="0"
   transform="translate(-2.2434,-334.22)"
   style="fill:#07b3df;fill-opacity:1"
   inkscape:export-filename="logo-primary.png"
   inkscape:export-xdpi="125.0687"
   inkscape:export-ydpi="125.0687">
        <path
   id="path6"
   d="m 96.681,1120.15 h 462.401 c -29.754,-13.63 -55.034,-35.44 -72.887,-62.87 H 159.555 V 397.094 H 598.72 L 634.438,334.22 H 96.681 v 0 c 0,51.738 -42.574,94.312 -94.312,94.312 0,0 0,27.507 0,27.507 8.62,0.005 15.711,7.099 15.711,15.719 0,8.62 -7.091,15.714 -15.711,15.718 v 27.508 c 8.62,0.004 15.711,7.099 15.711,15.719 0,8.62 -7.091,15.714 -15.711,15.718 v 27.508 c 8.62,0.004 15.711,7.098 15.711,15.718 0,8.62 -7.091,15.715 -15.711,15.719 v 27.508 c 51.738,0 94.312,42.573 94.312,94.311 0,51.738 -42.574,94.312 -94.312,94.312 v 27.508 c 8.62,0.004 15.711,7.098 15.711,15.718 0,8.62 -7.091,15.714 -15.711,15.719 v 27.507 c 8.62,0.005 15.711,7.099 15.711,15.719 0,8.62 -7.091,15.714 -15.711,15.719 v 27.507 c 8.62,0.004 15.711,7.099 15.711,15.719 0,8.62 -7.091,15.714 -15.711,15.718 v 27.509 c 51.738,0 94.312,42.57 94.312,94.31 z"
   style="fill:#07b3df;fill-opacity:1;fill-rule:nonzero" />
        <path
   id="path7"
   d="M 473.927,648.592 652.516,334.22 h 72.311 L 546.239,648.592 H 646.832 V 530.703 h 62.875 V 648.592 H 788.3 v 62.875 H 709.707 V 790.06 H 646.832 V 711.467 H 473.927 Z"
   style="fill:#07b3df;fill-opacity:1;fill-rule:nonzero" />
        <path
   id="path8"
   d="m 788.3,727.185 h -62.875 v 235.779 c 0,51.736 -42.574,94.316 -94.311,94.316 -51.738,0 -94.312,-42.58 -94.312,-94.316 V 727.185 h -62.875 v 235.779 c 0.022,86.216 70.972,157.146 157.187,157.146 86.214,0 157.164,-70.93 157.186,-157.146 z"
   style="fill:#07b3df;fill-opacity:1;fill-rule:nonzero" />
        <path
   id="path9"
   d="m 458.209,644.439 v 318.525 c 0,27.322 6.476,54.256 18.894,78.596 H 175.274 V 412.813 h 414.517 z"
   style="fill:#07b3df;fill-opacity:1;fill-rule:nonzero" />
    </g>
</svg>
