<?xml version="1.0" encoding="UTF-8" standalone="no"?>
<!DOCTYPE svg PUBLIC "-//W3C//DTD SVG 1.1//EN" "http://www.w3.org/Graphics/SVG/1.1/DTD/svg11.dtd">
<svg width="100%" height="100%" viewBox="0 0 786 786" version="1.1" xmlns="http://www.w3.org/2000/svg" xmlns:xlink="http://www.w3.org/1999/xlink" xml:space="preserve" xmlns:serif="http://www.serif.com/" style="fill-rule:evenodd;clip-rule:evenodd;stroke-linejoin:round;stroke-miterlimit:2;">
    <g id="_0" serif:id="0" transform="matrix(1,0,0,1,-2.36916,-334.22)">
        <path id="path6" d="M96.681,1120.15L559.082,1120.15C529.328,1106.52 504.048,1084.71 486.195,1057.28L159.555,1057.28L159.555,397.094L598.72,397.094L634.438,334.22L96.681,334.22L96.681,334.22C96.681,385.958 54.107,428.532 2.369,428.532C2.369,428.532 2.369,456.039 2.369,456.039C10.989,456.044 18.08,463.138 18.08,471.758C18.08,480.378 10.989,487.472 2.369,487.476L2.369,514.984C10.989,514.988 18.08,522.083 18.08,530.703C18.08,539.323 10.989,546.417 2.369,546.421L2.369,573.929C10.989,573.933 18.08,581.027 18.08,589.647C18.08,598.267 10.989,605.362 2.369,605.366L2.369,632.874C54.107,632.874 96.681,675.447 96.681,727.185C96.681,778.923 54.107,821.497 2.369,821.497L2.369,849.005C10.989,849.009 18.08,856.103 18.08,864.723C18.08,873.343 10.989,880.437 2.369,880.442L2.369,907.949C10.989,907.954 18.08,915.048 18.08,923.668C18.08,932.288 10.989,939.382 2.369,939.387L2.369,966.894C10.989,966.898 18.08,973.993 18.08,982.613C18.08,991.233 10.989,998.327 2.369,998.331L2.369,1025.84C54.107,1025.84 96.681,1068.41 96.681,1120.15Z" style="fill:white;fill-rule:nonzero;"/>
        <path id="path7" d="M473.927,648.592L652.516,334.22L724.827,334.22L546.239,648.592L646.832,648.592L646.832,530.703L709.707,530.703L709.707,648.592L788.3,648.592L788.3,711.467L709.707,711.467L709.707,790.06L646.832,790.06L646.832,711.467L473.927,711.467L473.927,648.592Z" style="fill:white;fill-rule:nonzero;"/>
        <path id="path8" d="M788.3,727.185L725.425,727.185L725.425,962.964C725.425,1014.7 682.851,1057.28 631.114,1057.28C579.376,1057.28 536.802,1014.7 536.802,962.964L536.802,727.185L473.927,727.185L473.927,962.964C473.949,1049.18 544.899,1120.11 631.114,1120.11C717.328,1120.11 788.278,1049.18 788.3,962.964L788.3,727.185Z" style="fill:white;fill-rule:nonzero;"/>
        <path id="path9" d="M458.209,644.439L458.209,962.964C458.209,990.286 464.685,1017.22 477.103,1041.56L175.274,1041.56L175.274,412.813L589.791,412.813L458.209,644.439Z" style="fill:white;fill-rule:nonzero;"/>
    </g>
</svg>
